<svg width="30" height="19" viewBox="0 0 30 19" fill="none" xmlns="http://www.w3.org/2000/svg">
    <path d="M18.8324 16.5755H10.9585V2.42493H18.8325L18.8324 16.5755Z" fill="#FF5F00" />
    <path
        d="M11.4577 9.49945C11.4577 6.62901 12.8017 4.07201 14.8946 2.42417C13.3104 1.175 11.3509 0.497029 9.33348 0.50001C4.36375 0.50001 0.335205 4.52914 0.335205 9.49945C0.335205 14.4698 4.36375 18.4989 9.33348 18.4989C11.351 18.5019 13.3105 17.8239 14.8947 16.5747C12.802 14.9272 11.4577 12.37 11.4577 9.49945Z"
        fill="#EB001B" />
    <path
        d="M29.4553 9.50067C29.4553 14.471 25.4268 18.5001 20.457 18.5001C18.4393 18.5031 16.4796 17.8251 14.895 16.576C16.9885 14.9281 18.3325 12.3713 18.3325 9.50067C18.3325 6.63009 16.9885 4.07323 14.895 2.42539C16.4795 1.17625 18.4392 0.498302 20.4569 0.50123C25.4266 0.50123 29.4552 4.53036 29.4552 9.50067"
        fill="#F79E1B" />
</svg>
    