<svg width="56" height="15" viewBox="0 0 56 15" fill="none" xmlns="http://www.w3.org/2000/svg">
    <path fill-rule="evenodd" clip-rule="evenodd"
        d="M13.1703 4.78486H9.40651C9.40651 4.16836 9.33389 3.75498 9.18978 3.54434C8.96552 3.23271 8.34731 3.0769 7.33552 3.0769C6.35271 3.0769 5.70176 3.16663 5.38381 3.3461C5.06587 3.52632 4.9067 3.91793 4.9067 4.52129C4.9067 5.06758 5.04781 5.4269 5.33001 5.59924C5.53206 5.72163 5.79959 5.79372 6.13259 5.81512L6.89152 5.86844C8.51814 5.9762 9.53444 6.05242 9.93968 6.09522C11.2261 6.22475 12.1589 6.56604 12.7372 7.11947C13.1929 7.55088 13.4642 8.11482 13.5511 8.81167C13.6015 9.22843 13.6267 9.70001 13.6267 10.2238C13.6267 11.4313 13.5112 12.3158 13.2802 12.876C12.861 13.9044 11.9196 14.554 10.4548 14.8269C9.8411 14.9422 8.90231 15 7.63955 15C5.53169 15 4.06273 14.8746 3.23344 14.623C2.21563 14.3148 1.54436 13.69 1.21964 12.7499C1.03866 12.2261 0.94873 11.3543 0.94873 10.134H4.71255C4.71255 10.27 4.7133 10.374 4.7133 10.446C4.7133 11.0971 4.90068 11.5161 5.27507 11.7023C5.5347 11.8311 5.84813 11.8987 6.21612 11.9066H7.60004C8.30592 11.9066 8.75669 11.8705 8.95122 11.7981C9.29701 11.6625 9.52428 11.444 9.63264 11.1414C9.69021 10.9552 9.71881 10.7145 9.71881 10.4194C9.71881 9.75896 9.47725 9.35721 8.99487 9.21304C8.81464 9.15634 7.97555 9.07675 6.47725 8.97612C5.27432 8.89089 4.43863 8.80829 3.97092 8.72832C2.73864 8.49854 1.91762 8.02508 1.50749 7.3072C1.1474 6.69708 0.967168 5.77382 0.967168 4.53894C0.967168 3.59841 1.06462 2.84449 1.25915 2.27717C1.45406 1.70985 1.76787 1.27919 2.20095 0.984457C2.83534 0.532404 3.64733 0.266578 4.63541 0.187356C5.45794 0.115643 6.37002 0.0792236 7.37352 0.0792236C8.9531 0.0792236 10.0789 0.170085 10.7502 0.349555C12.3881 0.788843 13.2068 2.01885 13.2068 4.03995C13.2068 4.2059 13.1948 4.45371 13.1703 4.78486Z"
        fill="#0054A6" />
    <path fill-rule="evenodd" clip-rule="evenodd"
        d="M33.7671 7.64774H36.2896C37.0892 7.61883 37.5753 7.55726 37.7506 7.46114C37.9896 7.3301 38.1502 7.06766 38.23 6.6738C38.2812 6.41135 38.3068 6.02163 38.3068 5.50387C38.3068 4.86934 38.256 4.39889 38.154 4.09214C38.0084 3.66148 37.66 3.39941 37.108 3.30442C36.9989 3.29015 36.7373 3.28227 36.3235 3.28227H33.7671V7.64774ZM29.7214 15V0H37.2592C38.2928 0 39.0819 0.0844784 39.6237 0.252309C40.8635 0.640159 41.6954 1.43388 42.1214 2.6331C42.3415 3.26275 42.4514 4.21041 42.4514 5.47608C42.4514 6.99745 42.3295 8.09079 42.0879 8.75648C41.6044 10.0732 40.6092 10.8313 39.1067 11.0276C38.9299 11.0573 38.1781 11.0836 36.851 11.1046L36.1793 11.1271H33.7671V15H29.7214Z"
        fill="#0054A6" />
    <path fill-rule="evenodd" clip-rule="evenodd"
        d="M50.2837 9.48524L48.3881 2.9834L46.5489 9.48524H50.2837ZM51.0874 12.4074H45.6782L44.9512 15H40.7656L45.282 0H51.3851L55.9571 15H51.8592L51.0874 12.4074Z"
        fill="#0054A6" />
    <path fill-rule="evenodd" clip-rule="evenodd"
        d="M24.1376 2.11034C25.8064 2.11034 27.2956 2.87741 28.2743 4.0785L29.1465 2.21284C27.7825 0.926516 25.9264 0.133545 23.8787 0.133545C20.691 0.133545 17.9642 2.05477 16.8448 4.77423H15.1444L14.1401 6.92224H16.3278C16.3116 7.1216 16.301 7.32097 16.301 7.5241C16.301 7.7704 16.3135 8.0137 16.3379 8.25437H15.2385L14.2346 10.4027H16.8971C18.0481 13.0535 20.741 14.9143 23.8787 14.9143C25.4602 14.9143 26.9276 14.4416 28.1426 13.634V11.0005C27.1639 12.1122 25.733 12.8147 24.1376 12.8147C22.2728 12.8147 20.6323 11.855 19.6769 10.4027H25.2521L26.2564 8.25437H18.8567C18.8187 7.99568 18.7983 7.73135 18.7983 7.46215C18.7983 7.28005 18.8078 7.1002 18.8251 6.92224H26.8784L27.8822 4.77423H19.5215C20.4464 3.1819 22.1671 2.11034 24.1376 2.11034Z"
        fill="#FFC20D" />
    <path fill-rule="evenodd" clip-rule="evenodd"
        d="M19.5214 4.83856H27.8821L27.8238 4.74695L26.8203 6.89533L26.8782 6.85778H18.825H18.767L18.7606 6.91635C18.7426 7.0977 18.7335 7.28168 18.7335 7.46227C18.7335 7.7281 18.7535 7.99805 18.793 8.26388L18.8013 8.31907H26.2563L26.198 8.22746L25.1937 10.3758L25.252 10.3387H19.6768H19.5572L19.623 10.4378C20.6277 11.9667 22.3156 12.8783 24.1375 12.8783C25.6862 12.8783 27.1638 12.21 28.1911 11.043L28.0778 11.0006V13.6341L28.1064 13.5811C26.8572 14.4109 25.3954 14.8498 23.8786 14.8498C20.8531 14.8498 18.136 13.0942 16.9564 10.377L16.9395 10.3387H16.897H14.2345L14.2936 10.4307L15.2971 8.28153L15.2384 8.31907H16.4089L16.4022 8.24774C16.3777 8.00519 16.3653 7.76114 16.3653 7.52422C16.3653 7.34213 16.3739 7.14689 16.392 6.92762L16.3976 6.85778H16.3277H14.14L14.1984 6.94977L15.2026 4.80139L15.1443 4.83856H16.8883L16.9045 4.79876C17.4568 3.45612 18.3968 2.31134 19.6219 1.48758C20.8771 0.644296 22.3491 0.19825 23.8786 0.19825C25.8375 0.19825 27.6921 0.930021 29.102 2.25952L29.0877 2.18556L28.2159 4.05159L28.3246 4.03808C27.2921 2.77203 25.7667 2.04589 24.1375 2.04589C22.2212 2.04589 20.4313 3.07878 19.4654 4.74169L19.4089 4.83856H19.5214ZM24.1375 2.17467C25.7276 2.17467 27.2169 2.88354 28.2242 4.11955L28.2893 4.19953L28.3333 4.10641L29.2051 2.24038L29.2247 2.19795L29.1908 2.16604C27.7572 0.813629 25.8706 0.0690918 23.8786 0.0690918C22.3235 0.0690918 20.8263 0.522647 19.55 1.38095C18.3035 2.2186 17.3474 3.38403 16.7856 4.74957L16.8447 4.70978H15.1443H15.1029L15.0856 4.74695L14.0817 6.89533L14.0388 6.98694H16.3277L16.2633 6.9171C16.2449 7.14013 16.2362 7.33837 16.2362 7.52422C16.2362 7.76527 16.2483 8.01345 16.2735 8.26088L16.3378 8.19029H15.2384H15.1977L15.1804 8.22746L14.1762 10.3758L14.1336 10.4675H16.897L16.8379 10.4284C18.0382 13.1925 20.8019 14.979 23.8786 14.979C25.4213 14.979 26.9076 14.5326 28.1783 13.6881L28.2069 13.669V13.6341V11.0006V10.8298L28.094 10.9582C27.0912 12.0969 25.6494 12.7499 24.1375 12.7499C22.3589 12.7499 20.7116 11.8589 19.7306 10.3672L19.6768 10.4675H25.2934L25.3107 10.4307L26.315 8.28153L26.3579 8.19029H26.2563H18.8566L18.9209 8.24473C18.8825 7.98491 18.863 7.72172 18.863 7.46227C18.863 7.28581 18.872 7.10634 18.8897 6.92874L18.825 6.98694H26.92L26.9369 6.94977L27.9408 4.80139L27.9841 4.70978H27.8821H19.5214L19.5771 4.80627C20.5201 3.18316 22.2674 2.17467 24.1375 2.17467Z"
        fill="#0054A6" />
</svg>
    