<svg width="50" height="17" viewBox="0 0 50 17" fill="none" xmlns="http://www.w3.org/2000/svg">
    <path fill-rule="evenodd" clip-rule="evenodd"
        d="M14.9289 16.0671L19.5488 0.834256H23.6709L19.0508 16.0671H14.9289ZM13.0862 0.838415L9.37817 7.29564C8.43424 8.98682 7.88249 9.84103 7.61717 10.9098H7.56072C7.62638 9.55491 7.43741 7.89165 7.41959 6.95158L7.01016 0.838415H0.0713081L0 1.24814C1.7827 1.24814 2.83984 2.14365 3.13071 3.97537L4.48319 16.0671H8.75364L17.3884 0.838415H13.0862ZM45.1423 16.0671L45.0285 13.8016L39.8813 13.7974L38.8286 16.0668H34.3535L42.468 0.863076H47.9611L49.3353 16.0668H45.1423V16.0671ZM44.6696 7.08172C44.6239 5.95594 44.5856 4.42787 44.6622 3.50325H44.6013C44.3505 4.25941 43.2729 6.53027 42.799 7.64713L41.2653 10.9861H44.8794L44.6696 7.08172ZM27.9984 16.5C25.0882 16.5 23.1569 15.5769 21.778 14.7538L23.7417 11.7551C24.9794 12.4473 25.9513 13.2463 28.1874 13.2463C28.9064 13.2463 29.5993 13.0594 29.9927 12.3781C30.5661 11.3872 29.8605 10.8542 28.2501 9.94265L27.455 9.42567C25.068 7.7945 24.0355 6.24533 25.1592 3.54098C25.8782 1.81117 27.7747 0.5 30.9034 0.5C33.061 0.5 35.0838 1.43324 36.2624 2.34509L34.0049 4.99269C32.8548 4.06242 31.9014 3.59179 30.8104 3.59179C29.9404 3.59179 29.2796 3.92723 29.0514 4.37974C28.6221 5.23039 29.1902 5.81036 30.4446 6.5891L31.39 7.19046C34.2881 9.01832 34.9786 10.935 34.2522 12.7269C33.0031 15.8113 30.5572 16.5 27.9984 16.5Z"
        fill="#171A72" />
</svg>
    