<svg width="19" height="19" viewBox="0 0 19 19" fill="none" xmlns="http://www.w3.org/2000/svg">
    <path
        d="M14.9948 14.2689C14.6477 14.2701 14.3037 14.2026 13.9829 14.0702C13.662 13.9377 13.3706 13.743 13.1254 13.4973L10.4251 10.7953C10.3296 10.7039 10.2025 10.653 10.0704 10.653C9.93822 10.653 9.81116 10.7039 9.71565 10.7953L7.00621 13.5047C6.76119 13.7508 6.46982 13.9459 6.14896 14.0787C5.82809 14.2115 5.48408 14.2795 5.13681 14.2786H4.60815L8.02988 17.7003C8.54307 18.2124 9.23845 18.5 9.96344 18.5C10.6884 18.5 11.3838 18.2124 11.897 17.7003L15.3256 14.2712L14.9948 14.2689Z"
        fill="#32BCAD" />
    <path
        d="M5.13738 4.71999C5.48466 4.71906 5.82867 4.78698 6.14954 4.91981C6.47042 5.05264 6.76178 5.24775 7.00678 5.49387L9.71622 8.20387C9.8104 8.29776 9.93795 8.35048 10.0709 8.35048C10.2039 8.35048 10.3315 8.29776 10.4257 8.20387L13.1254 5.50413C13.3702 5.25771 13.6615 5.06236 13.9824 4.92941C14.3033 4.79647 14.6474 4.72858 14.9948 4.72968H15.3199L11.8913 1.30112C11.6374 1.04714 11.336 0.845665 11.0042 0.708207C10.6724 0.570749 10.3168 0.5 9.95773 0.5C9.59862 0.5 9.24302 0.570749 8.91126 0.708207C8.57949 0.845665 8.27806 1.04714 8.02418 1.30112L4.60815 4.71999H5.13738Z"
        fill="#32BCAD" />
    <path
        d="M18.1559 7.56633L16.0841 5.49448C16.0373 5.51357 15.9874 5.52364 15.9369 5.52413H14.9948C14.5046 5.52536 14.0346 5.72006 13.6871 6.0659L10.9874 8.76393C10.7443 9.00663 10.4148 9.14293 10.0712 9.14293C9.7277 9.14293 9.39821 9.00663 9.15507 8.76393L6.44507 6.05564C6.09769 5.70958 5.62773 5.51467 5.1374 5.5133H3.98085C3.93319 5.51222 3.88609 5.50276 3.8417 5.48535L1.75673 7.56633C1.24463 8.07952 0.957031 8.7749 0.957031 9.49989C0.957031 10.2249 1.24463 10.9203 1.75673 11.4334L3.83714 13.5139C3.88143 13.4961 3.92859 13.4866 3.97629 13.4859H5.1374C5.62771 13.4845 6.09765 13.2896 6.44507 12.9436L9.1545 10.2341C9.64438 9.74483 10.4981 9.74483 10.9874 10.2341L13.6871 12.9333C14.0346 13.2791 14.5046 13.4738 14.9948 13.4751H15.9369C15.9874 13.4754 16.0374 13.4855 16.0841 13.5047L18.1559 11.4329C18.4099 11.179 18.6114 10.8776 18.7488 10.5458C18.8863 10.214 18.957 9.85843 18.957 9.49932C18.957 9.1402 18.8863 8.78461 18.7488 8.45284C18.6114 8.12108 18.4099 7.81964 18.1559 7.56576"
        fill="#32BCAD" />
</svg>
    