<svg width="68" height="21" viewBox="0 0 68 21" fill="none" xmlns="http://www.w3.org/2000/svg">
    <path
        d="M11.8847 3.87365C11.0385 3.29185 9.9341 3.00024 8.5717 3.00024H3.29722C2.87957 3.00024 2.64882 3.20912 2.60499 3.62638L0.462292 17.0761C0.440024 17.2082 0.473073 17.329 0.561139 17.4388C0.648701 17.5489 0.758834 17.6037 0.890731 17.6037H3.39607C3.83549 17.6037 4.07702 17.3953 4.12136 16.9773L4.71464 13.3514C4.7363 13.1757 4.81359 13.0328 4.94549 12.9228C5.07728 12.8129 5.24213 12.741 5.43992 12.7081C5.63772 12.6755 5.82423 12.6591 6.00036 12.6591C6.17599 12.6591 6.38467 12.6702 6.6268 12.692C6.86832 12.714 7.02229 12.7247 7.08829 12.7247C8.97817 12.7247 10.4616 12.1921 11.5386 11.126C12.6152 10.0602 13.154 8.58235 13.154 6.69206C13.154 5.39545 12.7306 4.45595 11.8847 3.87324V3.87365ZM9.16519 7.91218C9.05495 8.6815 8.7696 9.18672 8.30811 9.42855C7.84652 9.67068 7.18723 9.79099 6.33026 9.79099L5.24233 9.82404L5.80287 6.29667C5.8466 6.05514 5.98938 5.93423 6.23131 5.93423H6.85784C7.73649 5.93423 8.37421 6.06088 8.7698 6.31319C9.16519 6.5661 9.29708 7.09933 9.16519 7.91218Z"
        fill="#003087" />
    <path
        d="M67.5467 3H65.1074C64.8651 3 64.7224 3.12092 64.6789 3.36264L62.536 17.0763L62.5029 17.1422C62.5029 17.2527 62.547 17.3565 62.635 17.4555C62.7225 17.5541 62.8328 17.6037 62.9646 17.6037H65.1406C65.5575 17.6037 65.7884 17.3953 65.8329 16.9775L67.9756 3.49454V3.46179C67.9754 3.15417 67.8321 3.0003 67.5467 3.0003V3Z"
        fill="#009CDE" />
    <path
        d="M38.0757 8.30817C38.0757 8.19854 38.0316 8.09395 37.9441 7.9952C37.8559 7.89636 37.757 7.84668 37.6474 7.84668H35.1091C34.8668 7.84668 34.6691 7.95711 34.5156 8.17627L31.0213 13.3192L29.5709 8.37427C29.4605 8.02281 29.2189 7.84668 28.8456 7.84668H26.3729C26.2628 7.84668 26.1638 7.89625 26.0765 7.9952C25.9883 8.09395 25.9446 8.19864 25.9446 8.30817C25.9446 8.3525 26.1589 9.0005 26.5873 10.2532C27.0158 11.506 27.4774 12.8577 27.9719 14.3082C28.4664 15.7586 28.7244 16.5281 28.7466 16.6155C26.9443 19.0771 26.0435 20.3959 26.0435 20.5714C26.0435 20.8573 26.1863 21 26.4721 21H29.0104C29.2521 21 29.4498 20.8904 29.6038 20.6704L38.0101 8.53871C38.0537 8.49508 38.0757 8.4185 38.0757 8.30807V8.30817Z"
        fill="#003087" />
    <path
        d="M61.7125 7.84669H59.207C58.8991 7.84669 58.7129 8.20933 58.6469 8.93462C58.0749 8.05597 57.0316 7.61584 55.5149 7.61584C53.9326 7.61584 52.5863 8.20933 51.4767 9.3961C50.3667 10.583 49.812 11.9787 49.812 13.5829C49.812 14.8798 50.191 15.9126 50.9491 16.6815C51.7072 17.4512 52.7236 17.8353 53.9988 17.8353C54.6359 17.8353 55.2842 17.7032 55.9435 17.4397C56.6029 17.176 57.1189 16.8246 57.4931 16.3848C57.4931 16.4069 57.4707 16.5056 57.4272 16.6813C57.3829 16.8574 57.3612 16.9896 57.3612 17.0769C57.3612 17.4289 57.5037 17.6043 57.7898 17.6043H60.0646C60.4816 17.6043 60.7237 17.3959 60.7894 16.9779L62.1411 8.37398C62.1628 8.24208 62.1299 8.12137 62.0423 8.01134C61.954 7.90181 61.8444 7.84669 61.7125 7.84669ZM57.4106 14.341C56.8501 14.8904 56.1743 15.1651 55.3832 15.1651C54.7456 15.1651 54.2296 14.9896 53.8338 14.6377C53.438 14.2868 53.2402 13.8032 53.2402 13.1872C53.2402 12.3746 53.515 11.6874 54.0646 11.127C54.6133 10.5666 55.2953 10.2863 56.1084 10.2863C56.7233 10.2863 57.2343 10.4677 57.6412 10.8301C58.0475 11.1928 58.2513 11.693 58.2513 12.3303C58.2512 13.1214 57.9709 13.7918 57.4106 14.341Z"
        fill="#009CDE" />
    <path
        d="M24.2632 7.84669H21.7579C21.4497 7.84669 21.2633 8.20933 21.1973 8.93462C20.604 8.05597 19.56 7.61584 18.0656 7.61584C16.4832 7.61584 15.1369 8.20933 14.0272 9.3961C12.9172 10.583 12.3625 11.9787 12.3625 13.5829C12.3625 14.8798 12.7417 15.9126 13.4999 16.6815C14.2582 17.4512 15.2744 17.8353 16.5492 17.8353C17.1643 17.8353 17.802 17.7032 18.4612 17.4397C19.1204 17.176 19.6479 16.8246 20.0435 16.3848C19.9554 16.6484 19.9116 16.8793 19.9116 17.0769C19.9116 17.4289 20.0544 17.6043 20.3402 17.6043H22.6148C23.032 17.6043 23.274 17.3959 23.34 16.9779L24.6916 8.37398C24.7132 8.24208 24.6803 8.12137 24.5927 8.01134C24.5047 7.90181 24.395 7.84669 24.2632 7.84669ZM19.9612 14.3573C19.4007 14.8965 18.7136 15.1651 17.9009 15.1651C17.2632 15.1651 16.7522 14.9896 16.3679 14.6377C15.9831 14.2868 15.791 13.8032 15.791 13.1872C15.791 12.3746 16.0655 11.6874 16.6152 11.127C17.1643 10.5666 17.8456 10.2863 18.6591 10.2863C19.2741 10.2863 19.7851 10.4677 20.192 10.8302C20.5983 11.1929 20.8019 11.6931 20.8019 12.3304C20.8019 13.1434 20.5216 13.8194 19.9612 14.3573Z"
        fill="#003087" />
    <path
        d="M49.3338 3.87365C48.4876 3.29185 47.3835 3.00024 46.0209 3.00024H40.7793C40.3395 3.00024 40.0976 3.20912 40.0541 3.62638L37.9113 17.0761C37.889 17.2083 37.922 17.3291 38.0101 17.4389C38.0973 17.5489 38.2078 17.6037 38.3397 17.6037H41.0428C41.3064 17.6037 41.4822 17.461 41.5702 17.1752L42.1637 13.3514C42.1855 13.1757 42.2625 13.0328 42.3945 12.9228C42.5264 12.8129 42.691 12.7411 42.889 12.7081C43.0867 12.6755 43.2731 12.6591 43.4494 12.6591C43.6251 12.6591 43.8338 12.6702 44.0756 12.692C44.3173 12.714 44.4717 12.7247 44.5371 12.7247C46.4274 12.7247 47.9105 12.1921 48.9875 11.126C50.0645 10.0602 50.6028 8.58235 50.6028 6.69206C50.603 5.39555 50.1797 4.45605 49.3338 3.87334V3.87365ZM45.9549 9.29665C45.4713 9.62624 44.746 9.79099 43.7792 9.79099L42.7243 9.82404L43.2847 6.29667C43.3282 6.05514 43.471 5.93423 43.7131 5.93423H44.3063C44.7898 5.93423 45.1743 5.95619 45.4604 6.00002C45.7457 6.04436 46.0209 6.18129 46.2846 6.41204C46.5484 6.64288 46.6802 6.97812 46.6802 7.41764C46.6802 8.34062 46.4381 8.96685 45.9549 9.29665Z"
        fill="#009CDE" />
</svg>
    